{"title":"Falling.Skies.S02E10.HDTV.DivX-Atilla82","uid":7550406,"size":368455465,"categoryP":"video","categoryS":"tv_shows","magnet":"?xt=urn:btih:1c4d555c84fafbfaf316b5a3c99674d66e113e51&amp;dn=Falling.Skies.S02E10.HDTV.DivX-Atilla82&amp;tr=udp%3A%2F%2Ftracker.openbittorrent.com%3A80&amp;tr=udp%3A%2F%2Fopen.demonii.com%3A1337&amp;tr=udp%3A%2F%2Ftracker.coppersurfer.tk%3A6969&amp;tr=udp%3A%2F%2Fexodus.desync.com%3A6969","seeders":0,"leechers":2,"uploader":"Atilla82","files":2,"time":1345470972,"description":"Falling.Skies.S02E10.HDTV.DivX-Atilla82\n\n\n &lt;a href=&quot;\nhttp://www.imdb.com/title/tt1462059/&quot; rel=&quot;nofollow&quot; target=&quot;_NEW&quot;&gt;\nhttp://www.imdb.com/title/tt1462059/&lt;/a&gt;\n\n\nSurvivors of an alien attack on earth gather together to fight for their lives and fight back.\n\n\nlanguage: English\n\n\n\nGeneral\nComplete name : Falling.Skies.S02E10.HDTV.DivX-Atilla82.avi\nFormat : AVI\nFormat/Info : Audio Video Interleave\nFile size : 351 MiB\nDuration : 42mn 7s\nOverall bit rate : 1 166 Kbps\nWriting application : VirtualDubMod 1.5.10.2 (build 2540/release)\nWriting library : VirtualDubMod build 2540/release\n\nVideo\nID : 0\nFormat : MPEG-4 Visual\nFormat settings, BVOP : 1\nFormat settings, QPel : No\nFormat settings, GMC : No warppoints\nFormat settings, Matrix : Default (H.263)\nMuxing mode : Packed bitstream\nCodec ID : DX50\nCodec ID/Hint : DivX 5\nDuration : 42mn 7s\nBit rate : 1 029 Kbps\nWidth : 680 pixels\nHeight : 384 pixels\nDisplay aspect ratio : 16:9\nFrame rate : 23.976 fps\nColor space : YUV\nChroma subsampling : 4:2:0\nBit depth : 8 bits\nScan type : Progressive\nCompression mode : Lossy\nBits/(Pixel*Frame) : 0.164\nStream size : 310 MiB (88%)\nWriting library : DivX 3330\n\nAudio\nID : 1\nFormat : MPEG Audio\nFormat version : Version 1\nFormat profile : Layer 3\nCodec ID : 55\nCodec ID/Hint : MP3\nDuration : 42mn 7s\nBit rate mode : Constant\nBit rate : 128 Kbps\nChannel(s) : 2 channels\nSampling rate : 48.0 KHz\nCompression mode : Lossy\nStream size : 38.6 MiB (11%)\nAlignment : Aligned on interleaves\nInterleave, duration : 42 ms (1.00 video frame)\nInterleave, preload duration : 504 ms\n\n\n\nSCREENSHOTS &lt;a href=&quot;\nhttp://www.pohrani.com/f/1/QJ/2W0ugdQT/screens.jpg&quot; rel=&quot;nofollow&quot; target=&quot;_NEW&quot;&gt;\nhttp://www.pohrani.com/f/1/QJ/2W0ugdQT/screens.jpg&lt;/a&gt;\n\n\n\n","torrent":{"xt":"urn:btih:1c4d555c84fafbfaf316b5a3c99674d66e113e51","amp;dn":"Falling.Skies.S02E10.HDTV.DivX-Atilla82","amp;tr":["udp%3A%2F%2Ftracker.openbittorrent.com%3A80","udp%3A%2F%2Fopen.demonii.com%3A1337","udp%3A%2F%2Ftracker.coppersurfer.tk%3A6969","udp%3A%2F%2Fexodus.desync.com%3A6969"],"infoHash":"1c4d555c84fafbfaf316b5a3c99674d66e113e51","infoHashBuffer":{"type":"Buffer","data":[28,77,85,92,132,250,251,250,243,22,181,163,201,150,116,214,110,17,62,81]},"announce":[],"urlList":[]}}